<svg width="24" height="24" viewBox="0 0 24 24" fill="none" xmlns="http://www.w3.org/2000/svg">
    <path fill-rule="evenodd" clip-rule="evenodd" d="M8.39998 2.74998C8.39998 2.25292 7.99703 1.84998 7.49998 1.84998C7.00292 1.84998 6.59998 2.25292 6.59998 2.74998V4.1H5.99998C3.84607 4.1 2.09998 5.84609 2.09998 8V18C2.09998 20.1539 3.84607 21.9 5.99998 21.9H18C20.1539 21.9 21.9 20.1539 21.9 18V8C21.9 5.84609 20.1539 4.1 18 4.1H17.4V2.74998C17.4 2.25292 16.997 1.84998 16.5 1.84998C16.0029 1.84998 15.6 2.25292 15.6 2.74998V4.1H8.39998V2.74998ZM3.89998 18V9H20.1V18C20.1 19.1598 19.1598 20.1 18 20.1H5.99998C4.84018 20.1 3.89998 19.1598 3.89998 18ZM6.74998 10.6C6.25292 10.6 5.84998 11.0029 5.84998 11.5C5.84998 11.997 6.25292 12.4 6.74998 12.4H8.24998C8.74703 12.4 9.14998 11.997 9.14998 11.5C9.14998 11.0029 8.74703 10.6 8.24998 10.6H6.74998ZM11.25 10.6C10.7529 10.6 10.35 11.0029 10.35 11.5C10.35 11.997 10.7529 12.4 11.25 12.4H12.75C13.247 12.4 13.65 11.997 13.65 11.5C13.65 11.0029 13.247 10.6 12.75 10.6H11.25ZM15.75 10.6C15.2529 10.6 14.85 11.0029 14.85 11.5C14.85 11.997 15.2529 12.4 15.75 12.4H17.25C17.747 12.4 18.15 11.997 18.15 11.5C18.15 11.0029 17.747 10.6 17.25 10.6H15.75ZM6.74998 13.6C6.25292 13.6 5.84998 14.0029 5.84998 14.5C5.84998 14.997 6.25292 15.4 6.74998 15.4H8.24998C8.74703 15.4 9.14998 14.997 9.14998 14.5C9.14998 14.0029 8.74703 13.6 8.24998 13.6H6.74998ZM11.25 13.6C10.7529 13.6 10.35 14.0029 10.35 14.5C10.35 14.997 10.7529 15.4 11.25 15.4H12.75C13.247 15.4 13.65 14.997 13.65 14.5C13.65 14.0029 13.247 13.6 12.75 13.6H11.25ZM15.75 13.6C15.2529 13.6 14.85 14.0029 14.85 14.5C14.85 14.997 15.2529 15.4 15.75 15.4H17.25C17.747 15.4 18.15 14.997 18.15 14.5C18.15 14.0029 17.747 13.6 17.25 13.6H15.75ZM6.74998 16.6C6.25292 16.6 5.84998 17.0029 5.84998 17.5C5.84998 17.997 6.25292 18.4 6.74998 18.4H8.24998C8.74703 18.4 9.14998 17.997 9.14998 17.5C9.14998 17.0029 8.74703 16.6 8.24998 16.6H6.74998ZM11.25 16.6C10.7529 16.6 10.35 17.0029 10.35 17.5C10.35 17.997 10.7529 18.4 11.25 18.4H12.75C13.247 18.4 13.65 17.997 13.65 17.5C13.65 17.0029 13.247 16.6 12.75 16.6H11.25ZM15.75 16.6C15.2529 16.6 14.85 17.0029 14.85 17.5C14.85 17.997 15.2529 18.4 15.75 18.4H17.25C17.747 18.4 18.15 17.997 18.15 17.5C18.15 17.0029 17.747 16.6 17.25 16.6H15.75Z" fill="white"/>
</svg>
