<svg width="18" height="18" viewBox="0 0 18 18" fill="none" xmlns="http://www.w3.org/2000/svg">
    <g clip-path="url(#clip0)">
        <path d="M2.25 4.50024H3.75H15.75" stroke="#ffffff" stroke-width="2" stroke-linecap="round" stroke-linejoin="round"/>
        <path d="M6 4.50024V3.00024C6 2.60242 6.15804 2.22089 6.43934 1.93958C6.72064 1.65828 7.10218 1.50024 7.5 1.50024H10.5C10.8978 1.50024 11.2794 1.65828 11.5607 1.93958C11.842 2.22089 12 2.60242 12 3.00024V4.50024M14.25 4.50024V15.0002C14.25 15.3981 14.092 15.7796 13.8107 16.0609C13.5294 16.3422 13.1478 16.5002 12.75 16.5002H5.25C4.85218 16.5002 4.47064 16.3422 4.18934 16.0609C3.90804 15.7796 3.75 15.3981 3.75 15.0002V4.50024H14.25Z" stroke="#ffffff" stroke-width="2" stroke-linecap="round" stroke-linejoin="round"/>
        <path d="M7.5 8.25024V12.7502" stroke="#ffffff" stroke-width="2" stroke-linecap="round" stroke-linejoin="round"/>
        <path d="M10.5 8.25024V12.7502" stroke="#ffffff" stroke-width="2" stroke-linecap="round" stroke-linejoin="round"/>
    </g>
    <defs>
        <clipPath id="clip0">
            <rect width="18" height="18" fill="#ffffff" transform="translate(0 0.000244141)"/>
        </clipPath>
    </defs>
</svg>
